<?xml version="1.0" encoding="UTF-8" standalone="no"?>
<!DOCTYPE svg PUBLIC "-//W3C//DTD SVG 1.1//EN" "http://www.w3.org/Graphics/SVG/1.1/DTD/svg11.dtd">
<svg version="1.1" xmlns="http://www.w3.org/2000/svg" xmlns:xlink="http://www.w3.org/1999/xlink" preserveAspectRatio="xMidYMid meet" viewBox="0 0 1200 800" width="1200" height="800"><defs><path d="M112.45 260.24C112.45 260.24 112.17 260.24 111.83 260.24C111.49 260.24 111.22 260.24 111.22 260.24C111.22 260.24 111.49 260.24 111.83 260.24C112.17 260.24 112.33 260.24 112.45 260.24Z" id="b2ceayf4t"></path><path d="M800.62 606.56C800.62 617.54 800.62 637.5 800.62 648.48C800.62 655.66 794.8 661.47 787.63 661.47C691.95 661.47 417.92 661.47 322.25 661.47C315.07 661.47 309.26 655.66 309.26 648.48C309.26 637.5 309.26 617.54 309.26 606.56C309.26 599.39 315.07 593.57 322.25 593.57C417.92 593.57 691.95 593.57 787.63 593.57C794.8 593.57 800.62 599.39 800.62 606.56Z" id="b2NtMRCvZ"></path><path d="M770.99 442.92C770.99 454.17 770.99 476.27 770.99 487.52C770.99 493.95 765.77 499.17 759.34 499.17C675.25 499.17 434.63 499.17 350.54 499.17C344.11 499.17 338.89 493.95 338.89 487.52C338.89 476.27 338.89 454.17 338.89 442.92C338.89 436.48 344.11 431.27 350.54 431.27C434.63 431.27 675.25 431.27 759.34 431.27C765.77 431.27 770.99 436.48 770.99 442.92Z" id="bqRbEIeWs"></path><path d="M365.34 521.46L349.62 556.94L360.36 556.57L361.65 593.57L374.07 593.14L372.78 556.13L383.48 555.76L365.34 521.46Z" id="a4Uk7l8GDo"></path><path d="M422.36 521.46L406.65 556.94L417.38 556.57L418.67 593.57L431.09 593.14L429.8 556.13L440.5 555.76L422.36 521.46Z" id="e30qFiXZah"></path><path d="M475.68 521.46L459.96 556.94L470.7 556.57L471.98 593.57L484.41 593.14L483.12 556.13L493.82 555.76L475.68 521.46Z" id="kQdE1twEv"></path><path d="M531.46 521.46L515.75 556.94L526.48 556.57L527.77 593.57L540.19 593.14L538.9 556.13L549.61 555.76L531.46 521.46Z" id="bCTBvnYfE"></path><path d="M581.86 521.46L566.14 556.94L576.88 556.57L578.16 593.57L590.59 593.14L589.3 556.13L600 555.76L581.86 521.46Z" id="a9hgPJKcr"></path><path d="M634.4 521.46L618.68 556.94L629.41 556.57L630.7 593.57L643.12 593.14L641.84 556.13L652.54 555.76L634.4 521.46Z" id="dWDSeXAQW"></path><path d="M684.01 521.46L668.3 556.94L679.03 556.57L680.32 593.57L692.74 593.14L691.45 556.13L702.15 555.76L684.01 521.46Z" id="afH4xFH2z"></path><path d="M731.49 521.46L715.78 556.94L726.51 556.57L727.8 593.57L740.22 593.14L738.93 556.13L749.64 555.76L731.49 521.46Z" id="c9MDiPCoO"></path><path d="M406.85 368.73L421.15 399.16L411.96 399.1L411.74 431.27L401.1 431.2L401.31 399.03L392.14 398.97L406.85 368.73Z" id="appu3nPyS"></path><path d="M459.76 368.73L445.46 399.16L454.65 399.1L454.87 431.27L465.51 431.2L465.3 399.03L474.47 398.97L459.76 368.73Z" id="boVvcDhId"></path><path d="M515.55 368.73L501.25 399.16L510.44 399.1L510.65 431.27L521.3 431.2L521.09 399.03L530.26 398.97L515.55 368.73Z" id="ao9FLgvZX"></path><path d="M572.95 368.73L558.64 399.16L567.84 399.1L568.05 431.27L578.69 431.2L578.48 399.03L587.65 398.97L572.95 368.73Z" id="a3pwN5pCl5"></path><path d="M632.99 368.73L618.68 399.16L627.88 399.1L628.09 431.27L638.73 431.2L638.52 399.03L647.7 398.97L632.99 368.73Z" id="ehcZ9XCi4"></path><path d="M687.45 368.73L673.14 399.16L682.34 399.1L682.55 431.27L693.19 431.2L692.98 399.03L702.15 398.97L687.45 368.73Z" id="a1S73dRpzl"></path><path d="M452.91 244.29C435.38 244.29 421.15 230.29 421.15 213.04C421.15 195.79 435.38 181.79 452.91 181.79C470.44 181.79 484.67 195.79 484.67 213.04C484.67 230.29 470.44 244.29 452.91 244.29Z" id="d2lxCY46Qh"></path><path d="M549.61 242.04C532.08 242.04 517.85 228.03 517.85 210.79C517.85 193.54 532.08 179.54 549.61 179.54C567.14 179.54 581.37 193.54 581.37 210.79C581.37 228.03 567.14 242.04 549.61 242.04Z" id="b3LByoPiX"></path><path d="M641.38 244.29C623.86 244.29 609.63 230.29 609.63 213.04C609.63 195.79 623.86 181.79 641.38 181.79C658.91 181.79 673.14 195.79 673.14 213.04C673.14 230.29 658.91 244.29 641.38 244.29Z" id="b1wsytRLj6"></path><path d="M641.19 122.96L626.88 153.38L636.08 153.32L636.29 185.49L646.93 185.42L646.72 153.25L655.89 153.19L641.19 122.96Z" id="fY3sqljE9"></path><path d="M545.76 126.94L532.66 157.91L541.85 157.49L543.33 189.63L553.96 189.14L552.48 157L561.64 156.58L545.76 126.94Z" id="bpkFCArVn"></path><path d="M557.41 352.47C395.24 352.47 263.58 335.32 263.58 314.2C263.58 293.07 395.24 275.93 557.41 275.93C719.58 275.93 851.23 293.07 851.23 314.2C851.23 335.32 719.58 352.47 557.41 352.47Z" id="a7tu73qO4"></path><path d="M452.71 126.91L438.4 157.34L447.6 157.28L447.81 189.45L458.45 189.38L458.24 157.21L467.42 157.15L452.71 126.91Z" id="d4Wujm6tKH"></path><path d="M436.12 242.04L402.67 257.49L408.76 263.36L383.48 289.57L390.53 296.37L415.81 270.16L421.88 276.01L436.12 242.04Z" id="a21UFgsJsw"></path><path d="M549.71 244.29L536.41 264.79L544.77 264.83L544.67 286.64L554.35 286.68L554.46 264.88L562.81 264.92L549.71 244.29Z" id="g8nIjLbog"></path><path d="M665.43 242.45L678.38 273.91L684.56 267.19L708.63 289.3L715.78 281.52L691.71 259.41L697.87 252.7L665.43 242.45Z" id="kgEWduNHB"></path></defs><g><g><g><use xlink:href="#b2ceayf4t" opacity="1" fill="#87e662" fill-opacity="1"></use></g><g><use xlink:href="#b2NtMRCvZ" opacity="1" fill="#e5ce75" fill-opacity="1"></use><g><use xlink:href="#b2NtMRCvZ" opacity="1" fill-opacity="0" stroke="#000000" stroke-width="1" stroke-opacity="0"></use></g></g><g><use xlink:href="#bqRbEIeWs" opacity="1" fill="#e5ce75" fill-opacity="1"></use><g><use xlink:href="#bqRbEIeWs" opacity="1" fill-opacity="0" stroke="#000000" stroke-width="1" stroke-opacity="0"></use></g></g><g><use xlink:href="#a4Uk7l8GDo" opacity="1" fill="#e5ce75" fill-opacity="1"></use><g><use xlink:href="#a4Uk7l8GDo" opacity="1" fill-opacity="0" stroke="#000000" stroke-width="1" stroke-opacity="0"></use></g></g><g><use xlink:href="#e30qFiXZah" opacity="1" fill="#e5ce75" fill-opacity="1"></use><g><use xlink:href="#e30qFiXZah" opacity="1" fill-opacity="0" stroke="#000000" stroke-width="1" stroke-opacity="0"></use></g></g><g><use xlink:href="#kQdE1twEv" opacity="1" fill="#e5ce75" fill-opacity="1"></use><g><use xlink:href="#kQdE1twEv" opacity="1" fill-opacity="0" stroke="#000000" stroke-width="1" stroke-opacity="0"></use></g></g><g><use xlink:href="#bCTBvnYfE" opacity="1" fill="#e5ce75" fill-opacity="1"></use><g><use xlink:href="#bCTBvnYfE" opacity="1" fill-opacity="0" stroke="#000000" stroke-width="1" stroke-opacity="0"></use></g></g><g><use xlink:href="#a9hgPJKcr" opacity="1" fill="#e5ce75" fill-opacity="1"></use><g><use xlink:href="#a9hgPJKcr" opacity="1" fill-opacity="0" stroke="#000000" stroke-width="1" stroke-opacity="0"></use></g></g><g><use xlink:href="#dWDSeXAQW" opacity="1" fill="#e5ce75" fill-opacity="1"></use><g><use xlink:href="#dWDSeXAQW" opacity="1" fill-opacity="0" stroke="#000000" stroke-width="1" stroke-opacity="0"></use></g></g><g><use xlink:href="#afH4xFH2z" opacity="1" fill="#e5ce75" fill-opacity="1"></use><g><use xlink:href="#afH4xFH2z" opacity="1" fill-opacity="0" stroke="#000000" stroke-width="1" stroke-opacity="0"></use></g></g><g><use xlink:href="#c9MDiPCoO" opacity="1" fill="#e5ce75" fill-opacity="1"></use><g><use xlink:href="#c9MDiPCoO" opacity="1" fill-opacity="0" stroke="#000000" stroke-width="1" stroke-opacity="0"></use></g></g><g><use xlink:href="#appu3nPyS" opacity="1" fill="#e5ce75" fill-opacity="1"></use><g><use xlink:href="#appu3nPyS" opacity="1" fill-opacity="0" stroke="#000000" stroke-width="1" stroke-opacity="0"></use></g></g><g><use xlink:href="#boVvcDhId" opacity="1" fill="#e5ce75" fill-opacity="1"></use><g><use xlink:href="#boVvcDhId" opacity="1" fill-opacity="0" stroke="#000000" stroke-width="1" stroke-opacity="0"></use></g></g><g><use xlink:href="#ao9FLgvZX" opacity="1" fill="#e5ce75" fill-opacity="1"></use><g><use xlink:href="#ao9FLgvZX" opacity="1" fill-opacity="0" stroke="#000000" stroke-width="1" stroke-opacity="0"></use></g></g><g><use xlink:href="#a3pwN5pCl5" opacity="1" fill="#e5ce75" fill-opacity="1"></use><g><use xlink:href="#a3pwN5pCl5" opacity="1" fill-opacity="0" stroke="#000000" stroke-width="1" stroke-opacity="0"></use></g></g><g><use xlink:href="#ehcZ9XCi4" opacity="1" fill="#e5ce75" fill-opacity="1"></use><g><use xlink:href="#ehcZ9XCi4" opacity="1" fill-opacity="0" stroke="#000000" stroke-width="1" stroke-opacity="0"></use></g></g><g><use xlink:href="#a1S73dRpzl" opacity="1" fill="#e5ce75" fill-opacity="1"></use><g><use xlink:href="#a1S73dRpzl" opacity="1" fill-opacity="0" stroke="#000000" stroke-width="1" stroke-opacity="0"></use></g></g><g><use xlink:href="#d2lxCY46Qh" opacity="1" fill="#9f6db6" fill-opacity="1"></use><g><use xlink:href="#d2lxCY46Qh" opacity="1" fill-opacity="0" stroke="#000000" stroke-width="1" stroke-opacity="0"></use></g></g><g><use xlink:href="#b3LByoPiX" opacity="1" fill="#9f6db6" fill-opacity="1"></use><g><use xlink:href="#b3LByoPiX" opacity="1" fill-opacity="0" stroke="#000000" stroke-width="1" stroke-opacity="0"></use></g></g><g><use xlink:href="#b1wsytRLj6" opacity="1" fill="#9f6db6" fill-opacity="1"></use><g><use xlink:href="#b1wsytRLj6" opacity="1" fill-opacity="0" stroke="#000000" stroke-width="1" stroke-opacity="0"></use></g></g><g><use xlink:href="#fY3sqljE9" opacity="1" fill="#9f6db6" fill-opacity="1"></use><g><use xlink:href="#fY3sqljE9" opacity="1" fill-opacity="0" stroke="#000000" stroke-width="1" stroke-opacity="0"></use></g></g><g><use xlink:href="#bpkFCArVn" opacity="1" fill="#9f6db6" fill-opacity="1"></use><g><use xlink:href="#bpkFCArVn" opacity="1" fill-opacity="0" stroke="#000000" stroke-width="1" stroke-opacity="0"></use></g></g><g><use xlink:href="#a7tu73qO4" opacity="1" fill="#e5ce75" fill-opacity="1"></use><g><use xlink:href="#a7tu73qO4" opacity="1" fill-opacity="0" stroke="#000000" stroke-width="1" stroke-opacity="0"></use></g></g><g><use xlink:href="#d4Wujm6tKH" opacity="1" fill="#9f6db6" fill-opacity="1"></use><g><use xlink:href="#d4Wujm6tKH" opacity="1" fill-opacity="0" stroke="#000000" stroke-width="1" stroke-opacity="0"></use></g></g><g><use xlink:href="#a21UFgsJsw" opacity="1" fill="#e5ce75" fill-opacity="1"></use><g><use xlink:href="#a21UFgsJsw" opacity="1" fill-opacity="0" stroke="#000000" stroke-width="1" stroke-opacity="0"></use></g></g><g><use xlink:href="#g8nIjLbog" opacity="1" fill="#e5ce75" fill-opacity="1"></use><g><use xlink:href="#g8nIjLbog" opacity="1" fill-opacity="0" stroke="#000000" stroke-width="1" stroke-opacity="0"></use></g></g><g><use xlink:href="#kgEWduNHB" opacity="1" fill="#e5ce75" fill-opacity="1"></use><g><use xlink:href="#kgEWduNHB" opacity="1" fill-opacity="0" stroke="#000000" stroke-width="1" stroke-opacity="0"></use></g></g></g></g></svg>