<?xml version="1.0" encoding="UTF-8" standalone="no"?>
<!DOCTYPE svg PUBLIC "-//W3C//DTD SVG 1.1//EN" "http://www.w3.org/Graphics/SVG/1.1/DTD/svg11.dtd">
<svg version="1.1" xmlns="http://www.w3.org/2000/svg" xmlns:xlink="http://www.w3.org/1999/xlink" preserveAspectRatio="xMidYMid meet" viewBox="0 0 1200 800" width="1200" height="800"><defs><path d="M787.63 593.57C794.8 593.57 800.62 599.39 800.62 606.56C800.62 617.54 800.62 637.5 800.62 648.48C800.62 655.66 794.8 661.47 787.63 661.47C691.95 661.47 417.92 661.47 322.25 661.47C315.07 661.47 309.26 655.66 309.26 648.48C309.26 637.5 309.26 617.54 309.26 606.56C309.26 599.39 315.07 593.57 322.25 593.57C417.92 593.57 691.95 593.57 787.63 593.57Z" id="d7SjzVc7fA"></path><path d="M759.34 431.27C765.77 431.27 770.99 436.48 770.99 442.92C770.99 454.17 770.99 476.27 770.99 487.52C770.99 493.95 765.77 499.17 759.34 499.17C675.25 499.17 434.63 499.17 350.54 499.17C344.11 499.17 338.89 493.95 338.89 487.52C338.89 476.27 338.89 454.17 338.89 442.92C338.89 436.48 344.11 431.27 350.54 431.27C434.63 431.27 675.25 431.27 759.34 431.27Z" id="b198mMwld6"></path><path d="M383.48 555.76L365.34 521.46L349.62 556.94L360.36 556.57L361.65 593.57L374.07 593.14L372.78 556.13L383.48 555.76Z" id="hBD7PanQZ"></path><path d="M440.5 555.76L422.36 521.46L406.65 556.94L417.38 556.57L418.67 593.57L431.09 593.14L429.8 556.13L440.5 555.76Z" id="aalwg10I"></path><path d="M493.82 555.76L475.68 521.46L459.96 556.94L470.7 556.57L471.98 593.57L484.41 593.14L483.12 556.13L493.82 555.76Z" id="e83BZWP4m"></path><path d="M549.61 555.76L531.46 521.46L515.75 556.94L526.48 556.57L527.77 593.57L540.19 593.14L538.9 556.13L549.61 555.76Z" id="bkygOdywM"></path><path d="M600 555.76L581.86 521.46L566.14 556.94L576.88 556.57L578.16 593.57L590.59 593.14L589.3 556.13L600 555.76Z" id="c5HPGkQJMl"></path><path d="M652.54 555.76L634.4 521.46L618.68 556.94L629.41 556.57L630.7 593.57L643.12 593.14L641.84 556.13L652.54 555.76Z" id="ahlbsbl9Y"></path><path d="M702.15 555.76L684.01 521.46L668.3 556.94L679.03 556.57L680.32 593.57L692.74 593.14L691.45 556.13L702.15 555.76Z" id="aIZNaB7jB"></path><path d="M749.64 555.76L731.49 521.46L715.78 556.94L726.51 556.57L727.8 593.57L740.22 593.14L738.93 556.13L749.64 555.76Z" id="eMVzOt2oG"></path><path d="M392.14 398.97L406.85 368.73L421.15 399.16L411.96 399.1L411.74 431.27L401.1 431.2L401.31 399.03L392.14 398.97Z" id="gdUHLMj88"></path><path d="M474.47 398.97L459.76 368.73L445.46 399.16L454.65 399.1L454.87 431.27L465.51 431.2L465.3 399.03L474.47 398.97Z" id="c4yadPkOTC"></path><path d="M530.26 398.97L515.55 368.73L501.25 399.16L510.44 399.1L510.65 431.27L521.3 431.2L521.09 399.03L530.26 398.97Z" id="bV2Dh3FB"></path><path d="M587.65 398.97L572.95 368.73L558.64 399.16L567.84 399.1L568.05 431.27L578.69 431.2L578.48 399.03L587.65 398.97Z" id="cV8UU6CMU"></path><path d="M647.7 398.97L632.99 368.73L618.68 399.16L627.88 399.1L628.09 431.27L638.73 431.2L638.52 399.03L647.7 398.97Z" id="c14UTjyrJI"></path><path d="M702.15 398.97L687.45 368.73L673.14 399.16L682.34 399.1L682.55 431.27L693.19 431.2L692.98 399.03L702.15 398.97Z" id="bczs0R2Hf"></path><path d="M484.67 213.04C484.67 230.29 470.44 244.29 452.91 244.29C435.38 244.29 421.15 230.29 421.15 213.04C421.15 195.79 435.38 181.79 452.91 181.79C470.44 181.79 484.67 195.79 484.67 213.04Z" id="eqCPSDXt9"></path><path d="M579.27 211.81C579.27 229.05 565.04 243.06 547.51 243.06C529.98 243.06 515.75 229.05 515.75 211.81C515.75 194.56 529.98 180.56 547.51 180.56C565.04 180.56 579.27 194.56 579.27 211.81Z" id="aNWf6SCwm"></path><path d="M673.14 213.04C673.14 230.29 658.91 244.29 641.38 244.29C623.86 244.29 609.63 230.29 609.63 213.04C609.63 195.79 623.86 181.79 641.38 181.79C658.91 181.79 673.14 195.79 673.14 213.04Z" id="bAfg8qg5F"></path><path d="M655.89 151.96L641.19 121.73L626.88 152.15L636.08 152.09L636.29 184.26L646.93 184.19L646.72 152.02L655.89 151.96Z" id="c24ruKW6nJ"></path><path d="M561.69 157.15L546.99 126.91L532.68 157.34L541.88 157.28L542.09 189.45L552.73 189.38L552.52 157.21L561.69 157.15Z" id="d477P8pi3"></path><path d="M851.23 314.2C851.23 335.32 719.58 352.47 557.41 352.47C395.24 352.47 263.58 335.32 263.58 314.2C263.58 293.07 395.24 275.93 557.41 275.93C719.58 275.93 851.23 293.07 851.23 314.2Z" id="c171VYsGv2"></path><path d="M467.42 157.15L452.71 126.91L438.4 157.34L447.6 157.28L447.81 189.45L458.45 189.38L458.24 157.21L467.42 157.15Z" id="b1bCgK1HOm"></path><path d="M421.88 276.01L436.12 242.04L402.67 257.49L408.76 263.36L383.48 289.57L390.53 296.37L415.81 270.16L421.88 276.01Z" id="bB8qI6FsN"></path><path d="M562.81 264.92L549.71 244.29L536.41 264.79L544.77 264.83L544.67 286.64L554.35 286.68L554.46 264.88L562.81 264.92Z" id="e7hwFl0Z5o"></path><path d="M697.87 252.7L665.43 242.45L678.38 273.91L684.56 267.19L708.63 289.3L715.78 281.52L691.71 259.41L697.87 252.7Z" id="czd6yPr9"></path></defs><g><g><g><use xlink:href="#d7SjzVc7fA" opacity="1" fill="#3ab9a7" fill-opacity="1"></use></g><g><use xlink:href="#b198mMwld6" opacity="1" fill="#3ab9a7" fill-opacity="1"></use></g><g><use xlink:href="#hBD7PanQZ" opacity="1" fill="#3ab9a7" fill-opacity="1"></use></g><g><use xlink:href="#aalwg10I" opacity="1" fill="#3ab9a7" fill-opacity="1"></use></g><g><use xlink:href="#e83BZWP4m" opacity="1" fill="#3ab9a7" fill-opacity="1"></use></g><g><use xlink:href="#bkygOdywM" opacity="1" fill="#3ab9a7" fill-opacity="1"></use></g><g><use xlink:href="#c5HPGkQJMl" opacity="1" fill="#3ab9a7" fill-opacity="1"></use></g><g><use xlink:href="#ahlbsbl9Y" opacity="1" fill="#3ab9a7" fill-opacity="1"></use></g><g><use xlink:href="#aIZNaB7jB" opacity="1" fill="#3ab9a7" fill-opacity="1"></use></g><g><use xlink:href="#eMVzOt2oG" opacity="1" fill="#3ab9a7" fill-opacity="1"></use></g><g><use xlink:href="#gdUHLMj88" opacity="1" fill="#3ab9a7" fill-opacity="1"></use></g><g><use xlink:href="#c4yadPkOTC" opacity="1" fill="#3ab9a7" fill-opacity="1"></use></g><g><use xlink:href="#bV2Dh3FB" opacity="1" fill="#3ab9a7" fill-opacity="1"></use></g><g><use xlink:href="#cV8UU6CMU" opacity="1" fill="#3ab9a7" fill-opacity="1"></use></g><g><use xlink:href="#c14UTjyrJI" opacity="1" fill="#3ab9a7" fill-opacity="1"></use></g><g><use xlink:href="#bczs0R2Hf" opacity="1" fill="#3ab9a7" fill-opacity="1"></use></g><g><use xlink:href="#eqCPSDXt9" opacity="1" fill="#d75c5c" fill-opacity="1"></use></g><g><use xlink:href="#aNWf6SCwm" opacity="1" fill="#d75c5c" fill-opacity="1"></use></g><g><use xlink:href="#bAfg8qg5F" opacity="1" fill="#d75c5c" fill-opacity="1"></use></g><g><use xlink:href="#c24ruKW6nJ" opacity="1" fill="#d75c5c" fill-opacity="1"></use></g><g><use xlink:href="#d477P8pi3" opacity="1" fill="#d75c5c" fill-opacity="1"></use></g><g><use xlink:href="#c171VYsGv2" opacity="1" fill="#3ab9a7" fill-opacity="1"></use></g><g><use xlink:href="#b1bCgK1HOm" opacity="1" fill="#d75c5c" fill-opacity="1"></use></g><g><use xlink:href="#bB8qI6FsN" opacity="1" fill="#3ab9a7" fill-opacity="1"></use></g><g><use xlink:href="#e7hwFl0Z5o" opacity="1" fill="#3ab9a7" fill-opacity="1"></use></g><g><use xlink:href="#czd6yPr9" opacity="1" fill="#3ab9a7" fill-opacity="1"></use></g></g></g></svg>